<?xml version="1.0" encoding="UTF-8"?>
<svg id="Layer_2" data-name="Layer 2" xmlns="http://www.w3.org/2000/svg" viewBox="0 0 324.41 53.53">
  <defs>
    
  </defs>
  <g id="Layer_1-2" data-name="Layer 1">
    <g>
      <path class="cls-2" d="M17.48,22.01v-10.43l.8-.46,5.86-3.38-5.06-2.92-7.44,4.3h0s-7.44,4.3-7.44,4.3v18.11h0v8.6l7.44,4.3h0s7.44,4.3,7.44,4.3l5.06-2.92-5.86-3.38-.8-.46v-10.43h0v-9.51h0ZM33.95,40.12v-7.03h19.66v8.86l-.8.46-8.24,4.76h0l-8.24,4.76-.79.46-.79-.46-7.45-4.3-7.45,4.3-.79.46-.79-.46-8.24-4.76h0l-8.24-4.76-.8-.46v-10.43h0V11.58l.8-.46,8.24-4.76h0L18.28,1.61l.79-.46.79.46,7.45,4.3,7.45-4.3.79-.46.79.46,8.24,4.76h0l8.24,4.76.8.46v9.32h-19.66v-7.49l-6.64-3.84-6.64,3.84v18.11h0v8.6l6.64,3.84,6.64-3.84h0ZM37.14,12.5v5.21h13.29v-4.3l-7.44-4.3h0s-7.44-4.3-7.44-4.3l-5.06,2.92,5.86,3.38.8.46v.92h0ZM37.14,36.28v5.67l-.8.46-5.86,3.38,5.06,2.92,7.44-4.3h0s7.44-4.3,7.44-4.3v-3.84h-13.29Z"></path>
      <g>
        <path class="cls-1" d="M90.03,44.59c2.85,0,5.34-.39,7.47-1.18,2.13-.79,3.69-1.57,4.66-2.34l3.37,6.74c-1.12,1-3.08,2.01-5.88,3.03-2.8,1.02-6.14,1.54-10.04,1.54-3.64,0-7.04-.65-10.19-1.95-3.15-1.3-5.9-3.1-8.28-5.41-2.37-2.31-4.22-5.01-5.54-8.11-1.32-3.09-1.98-6.45-1.98-10.07s.66-6.99,1.98-10.11c1.32-3.12,3.16-5.84,5.52-8.16,2.36-2.32,5.12-4.14,8.28-5.45,3.16-1.31,6.56-1.97,10.2-1.97,3.89,0,7.24.51,10.04,1.54,2.8,1.02,4.76,2.03,5.88,3.03l-3.37,6.74c-.97-.77-2.53-1.55-4.66-2.34-2.13-.79-4.62-1.18-7.47-1.18-2.7,0-5.14.45-7.34,1.35-2.2.9-4.08,2.16-5.65,3.78-1.57,1.62-2.78,3.51-3.63,5.67-.85,2.16-1.27,4.49-1.27,6.98s.42,4.87,1.27,7.04c.85,2.17,2.06,4.07,3.63,5.69s3.46,2.88,5.65,3.78c2.2.9,4.64,1.35,7.34,1.35Z"></path>
        <path class="cls-1" d="M112.98,2.05h29.96v7.04h-22.13v14.19h21.76v6.85h-21.76v14.3h22.13v7.04h-29.96V2.05Z"></path>
        <path class="cls-1" d="M162.41,9.09h-12.84V2.05h33.59v7.04h-12.84v42.39h-7.9V9.09Z"></path>
        <path class="cls-1" d="M219.4,30.21h-21.68v21.27h-7.83V2.05h7.83v21.16h21.68V2.05h7.79v49.43h-7.79v-21.27Z"></path>
        <path class="cls-1" d="M234.57,26.73c0-3.59.63-6.95,1.89-10.05,1.26-3.11,3.01-5.82,5.24-8.14,2.23-2.32,4.86-4.13,7.88-5.43,3.02-1.3,6.29-1.95,9.81-1.95s6.86.65,9.87,1.95c3.01,1.3,5.64,3.11,7.88,5.43,2.25,2.32,3.98,5.04,5.21,8.14,1.22,3.11,1.83,6.46,1.83,10.05s-.61,6.98-1.82,10.09c-1.21,3.11-2.93,5.83-5.15,8.16-2.22,2.33-4.84,4.15-7.86,5.45-3.02,1.3-6.34,1.95-9.96,1.95s-6.98-.65-10.02-1.95c-3.03-1.3-5.65-3.11-7.86-5.45-2.21-2.33-3.92-5.05-5.13-8.16-1.21-3.11-1.82-6.47-1.82-10.09ZM242.77,26.73c0,3.39.71,6.47,2.13,9.23,1.42,2.76,3.38,4.94,5.88,6.55,2.5,1.61,5.37,2.42,8.61,2.42s6.18-.8,8.67-2.42c2.48-1.61,4.43-3.79,5.84-6.55,1.41-2.76,2.12-5.84,2.12-9.23s-.71-6.47-2.12-9.21c-1.41-2.75-3.36-4.92-5.84-6.52-2.48-1.6-5.37-2.4-8.67-2.4s-6.12.8-8.61,2.4c-2.5,1.6-4.46,3.77-5.88,6.52-1.42,2.75-2.13,5.82-2.13,9.21Z"></path>
        <path class="cls-1" d="M307.55,1.15c2.9,0,5.41.33,7.55.99,2.13.66,3.83,1.36,5.07,2.1,1.25.74,2,1.22,2.25,1.44l-3.93,6.4c-.37-.32-1.04-.78-2-1.37-.96-.59-2.13-1.12-3.52-1.59-1.39-.47-2.93-.71-4.62-.71-2.55,0-4.57.49-6.07,1.48-1.5.99-2.25,2.42-2.25,4.29,0,1.25.4,2.35,1.2,3.3.8.95,1.94,1.83,3.43,2.66,1.48.82,3.26,1.66,5.34,2.51,1.75.72,3.45,1.55,5.11,2.47,1.66.92,3.15,2.01,4.47,3.26,1.32,1.25,2.38,2.7,3.16,4.34.79,1.65,1.18,3.55,1.18,5.69s-.46,4.24-1.39,5.97c-.92,1.74-2.2,3.2-3.82,4.38-1.62,1.19-3.49,2.08-5.6,2.7-2.11.61-4.36.92-6.76.92-3.15,0-5.97-.38-8.48-1.14-2.51-.76-4.54-1.56-6.08-2.4-1.55-.84-2.45-1.38-2.7-1.63l4.16-6.7c.3.25.85.62,1.67,1.1.81.49,1.82,1,3.01,1.54,1.2.54,2.53.99,3.99,1.35,1.46.36,2.98.54,4.55.54,3.02,0,5.3-.66,6.85-1.97,1.55-1.31,2.32-3,2.32-5.07,0-1.57-.49-2.94-1.48-4.1-.99-1.16-2.33-2.21-4.04-3.16-1.71-.95-3.65-1.88-5.82-2.81-2.22-.97-4.27-2.07-6.16-3.3-1.89-1.22-3.4-2.71-4.55-4.47-1.15-1.76-1.72-3.9-1.72-6.42s.72-4.72,2.15-6.61c1.44-1.88,3.34-3.35,5.71-4.4,2.37-1.05,4.98-1.57,7.83-1.57Z"></path>
      </g>
    </g>
  </g>
</svg>